<?xml version="1.0" encoding="UTF-8" standalone="no"?>
<svg
   xmlns:dc="http://purl.org/dc/elements/1.1/"
   xmlns:cc="http://creativecommons.org/ns#"
   xmlns:rdf="http://www.w3.org/1999/02/22-rdf-syntax-ns#"
   xmlns:svg="http://www.w3.org/2000/svg"
   xmlns="http://www.w3.org/2000/svg"
   xmlns:sodipodi="http://sodipodi.sourceforge.net/DTD/sodipodi-0.dtd"
   xmlns:inkscape="http://www.inkscape.org/namespaces/inkscape"
   id="SVGRoot"
   version="1.1"
   viewBox="0 0 128.0 128.0"
   height="128.0px"
   width="128.0px"
   inkscape:version="1.0.1 (3bc2e813f5, 2020-09-07)"
   sodipodi:docname="about.svg">
  <defs
     id="defs833">
    <rect
       id="rect873"
       height="64.035156"
       width="75.496296"
       y="47"
       x="34" />
    <rect
       x="34"
       y="47"
       width="75.4963"
       height="64.035156"
       id="rect873-6" />
    <rect
       x="34"
       y="47"
       width="75.4963"
       height="64.035156"
       id="rect886" />
    <rect
       x="34"
       y="47"
       width="75.4963"
       height="64.035156"
       id="rect873-5" />
    <rect
       x="34"
       y="47"
       width="75.4963"
       height="64.035156"
       id="rect915" />
    <rect
       id="rect873-6-5"
       height="64.035156"
       width="75.4963"
       y="47"
       x="34" />
    <rect
       id="rect944"
       height="64.035156"
       width="75.4963"
       y="47"
       x="34" />
    <radialGradient
       r="33.5"
       cy="56.5"
       cx="32.5"
       gradientTransform="matrix(1,0,0,0.10447761,0,50.597015)"
       gradientUnits="userSpaceOnUse"
       id="radialGradient3981">
      <stop
         style="stop-color:#000;stop-opacity:1"
         id="stop1167" />
      <stop
         offset="1"
         style="stop-color:#000;stop-opacity:0"
         id="stop1169" />
    </radialGradient>
  </defs>
  <sodipodi:namedview
     id="base"
     pagecolor="#ffffff"
     bordercolor="#666666"
     borderopacity="1.0"
     inkscape:pageopacity="0.0"
     inkscape:pageshadow="2"
     inkscape:zoom="7.2407734"
     inkscape:cx="51.15753"
     inkscape:cy="59.520327"
     inkscape:document-units="px"
     inkscape:current-layer="layer1"
     inkscape:document-rotation="0"
     showgrid="true"
     inkscape:window-width="1920"
     inkscape:window-height="999"
     inkscape:window-x="0"
     inkscape:window-y="0"
     inkscape:window-maximized="1">
    <inkscape:grid
       id="grid1403"
       type="xygrid" />
  </sodipodi:namedview>
  <metadata
     id="metadata836">
    <rdf:RDF>
      <cc:Work
         rdf:about="">
        <dc:format>image/svg+xml</dc:format>
        <dc:type
           rdf:resource="http://purl.org/dc/dcmitype/StillImage" />
        <dc:title />
      </cc:Work>
    </rdf:RDF>
  </metadata>
  <g
     inkscape:label="Layer 1"
     inkscape:groupmode="layer"
     id="layer1">
    <rect
       style="opacity:1;fill:#8fd7ff;fill-opacity:1;stroke:#000000;stroke-opacity:0.160751"
       id="rect1410"
       width="80"
       height="80"
       x="25"
       y="20"
       ry="15" />
    <g
       transform="translate(33.429001,-959.242)"
       id="g1188">
      <path
         d="m 66,56.5 a 33.5,3.5 0 1 1 -67,0 33.5,3.5 0 1 1 67,0 z"
         transform="matrix(1.1343284,0,0,1.1428571,-4.8656716,979.79077)"
         style="opacity:0.6;fill:url(#radialGradient3981);fill-opacity:1;stroke:none"
         id="path1174" />
      <path
         d="m 0,997.42 v 42.823 h 64 v -21.412 L 60.952,1000.478 37,1000.36 l -3,-6 H 3.048 C 1.524,994.36 0,995.889 0,997.419 Z"
         style="fill:#1976d2;fill-opacity:1;stroke:none"
         id="path1176" />
      <rect
         width="31.570999"
         height="11.882"
         x="5"
         y="1002.36"
         style="fill:#fffdf0;fill-opacity:1;stroke:none"
         id="rect1178" />
      <path
         d="M 3.0625,6 C 1.538691,6 0,7.53308 0,9.0625 v 2 C 0,9.53308 1.538691,8 3.0625,8 H 33 l 3,6 24.9375,0.125 L 64,32.46875 v -2 L 60.9375,12.125 37,12 34,6 Z"
         transform="translate(0,988.3622)"
         style="opacity:0.03;fill:#000000;fill-opacity:1;stroke:none"
         id="path1180" />
      <path
         d="m 64,1003.54 v 42.824 H 0 v -40 h 30 l 3,-6 27.952,0.118 c 1.524,0 3.048,1.529 3.048,3.059 z"
         style="fill:#42a5f5;fill-opacity:1;stroke:none"
         id="path1182" />
      <path
         d="m 0,1044.36 v 2 h 64 v -2 z"
         style="opacity:0.15;fill:#000000;fill-opacity:1;stroke:none"
         id="path1184" />
      <path
         d="m 33,12 -3,6 H 0 v 2 h 31 l 3,-6 26.938,0.125 c 1.524,0 3.063,1.533 3.063,3.063 v -2 c 0,-1.529 -1.539,-3.063 -3.063,-3.063 z"
         transform="translate(0,988.3622)"
         style="opacity:0.03;fill:#000000;fill-opacity:1;stroke:none"
         id="path1186" />
    </g>
  </g>
</svg>
